<svg width="32" height="32" viewBox="0 0 32 32" fill="none" xmlns="http://www.w3.org/2000/svg">
<path d="M27.9614 7.98796L27.5306 8.12456L25.2359 8.329L24.5877 9.36404L24.1174 9.21461L22.2912 7.56808L22.0262 6.71181L21.6714 5.7987L20.5236 4.76916L19.1696 4.50421L19.1384 5.12395L20.465 6.41844L21.114 7.18303L20.3843 7.56441L19.7902 7.38931L18.9 7.01801L18.9303 6.30018L17.7623 5.81979L17.3745 7.50757L16.1974 7.77435L16.3138 8.71588L17.8476 9.01109L18.1125 7.50665L19.3786 7.69368L19.9672 8.03839H20.9114L21.5578 9.33287L23.2712 11.0711L23.1456 11.7467L21.764 11.5707L19.3768 12.7763L17.6578 14.8381L17.4341 15.7512H16.8171L15.6675 15.2213L14.5508 15.7512L14.8286 16.9293L15.3145 16.3691L16.169 16.3425L16.1094 17.4005L16.8171 17.6077L17.5239 18.4016L18.6782 18.0771L19.9965 18.2852L21.5275 18.6968L22.2921 18.7867L23.5884 20.2581L26.0903 21.7295L24.4722 24.8209L22.7642 25.6148L22.1161 27.3815L19.6445 29.0317L19.3813 29.9833C25.6998 28.4614 30.4001 22.7857 30.4001 15.9997C30.4026 13.1459 29.5535 10.3563 27.9614 7.98796Z" fill="white"/>
<path d="M17.6576 23.5266L16.6088 21.5821L17.5714 19.5762L16.6088 19.2883L15.5279 18.2029L13.1333 17.6656L12.3384 16.0026V16.99H11.9882L9.92455 14.192V11.8936L8.41187 9.4339L6.00991 9.86204H4.3918L3.5777 9.32847L4.61641 8.50521L3.58045 8.74449C2.2863 10.944 1.60387 13.4497 1.60388 16.0017C1.60388 23.9529 8.04974 30.4015 16.0019 30.4015C16.6143 30.4015 17.2148 30.3474 17.8088 30.2759L17.6585 28.5313C17.6585 28.5313 18.3195 25.9405 18.3195 25.8525C18.3186 25.7635 17.6576 23.5266 17.6576 23.5266ZM6.95419 6.24352L9.512 5.88689L10.691 5.24057L12.0176 5.62286L14.1371 5.50552L14.8632 4.36413L15.9221 4.53832L18.4937 4.2972L19.2023 3.51611L20.2016 2.8487L21.6153 3.06139L22.1305 2.98346C20.2146 2.07507 18.1213 1.6026 16.0009 1.60005C13.8781 1.59767 11.7812 2.06601 9.86118 2.97135C7.94112 3.87669 6.24568 5.1965 4.89694 6.83576H4.90428L6.95419 6.24352ZM16.6097 3.03205L18.0802 2.22254L19.0245 2.76802L17.6576 3.80856L16.3521 3.93966L15.7644 3.55828L16.6097 3.03205ZM12.2541 3.15032L12.9032 3.42076L13.753 3.15032L14.216 3.95249L12.2541 4.46772L11.3107 3.91582C11.3098 3.91582 12.233 3.32175 12.2541 3.15032Z" fill="white"/>
</svg>
