<svg width="160" height="160" viewBox="0 0 160 160" fill="none" xmlns="http://www.w3.org/2000/svg">
<g clip-path="url(#clip0_0_164)">
<rect width="160" height="160" rx="37.5" fill="url(#paint0_linear_0_164)"/>
<path d="M153.75 193.281L33.4375 102.812L60.7812 97.1875L78.75 75.4688L140.469 77.0312L210.469 136.562L153.75 193.281Z" fill="url(#paint1_linear_0_164)" fill-opacity="0.05"/>
<path fill-rule="evenodd" clip-rule="evenodd" d="M64.4619 67.1952C57.2139 59.8428 45.3781 59.7581 38.0257 67.006C30.6732 74.2539 30.5885 86.0897 37.8364 93.4422C45.0843 100.795 56.9202 100.879 64.2726 93.6314C71.625 86.3835 71.7098 74.5476 64.4619 67.1952ZM30.5265 59.3987C42.0805 48.009 60.6796 48.1423 72.0691 59.6961C76.4149 64.1046 79.0832 69.5388 80.0793 75.2069L115.079 75.444C115.182 75.4388 115.285 75.4366 115.39 75.4374C115.492 75.4381 115.594 75.4418 115.696 75.4483L138.047 75.5995C139.464 75.609 140.819 76.1813 141.814 77.1902C142.809 78.1991 143.362 79.5618 143.352 80.9787L143.244 96.0851C143.222 99.0347 140.814 101.409 137.864 101.388C134.915 101.367 132.541 98.9583 132.562 96.0087L132.632 86.2454L120.654 86.1641L120.584 95.9229C120.563 98.8725 118.155 101.247 115.205 101.226C112.255 101.204 109.881 98.796 109.902 95.8465L109.972 86.0916L79.9949 85.889C78.9118 91.5256 76.1687 96.9042 71.7717 101.239C60.2178 112.628 41.6188 112.495 30.2291 100.941C18.8396 89.3875 18.9726 70.7884 30.5265 59.3987ZM38.7562 81.0478C38.7381 74.3279 44.191 68.8456 50.9109 68.8275C57.6307 68.8094 63.113 74.2623 63.1311 80.9822C63.1446 85.9958 60.0155 90.57 55.3434 92.365C55.2567 92.3987 55.1638 92.4157 55.0724 92.416C54.9596 92.4163 54.8453 92.3907 54.7401 92.3407C54.5509 92.2483 54.4073 92.0841 54.3443 91.8832L52.0395 84.5921C51.9289 84.2466 52.0787 83.8714 52.3951 83.6969C53.3823 83.1473 53.9935 82.1174 53.9905 81.0068C53.986 79.3264 52.6158 77.9636 50.9354 77.9681C49.2551 77.9726 47.8923 79.3428 47.8968 81.0232C47.8998 82.1338 48.5165 83.1604 49.5066 83.7031C49.824 83.876 49.9743 84.2503 49.8671 84.5964L47.6015 91.8998C47.5396 92.1011 47.3969 92.266 47.2082 92.3594C47.0195 92.4514 46.8002 92.4641 46.605 92.387C41.9248 90.6186 38.7697 86.0614 38.7562 81.0478Z" fill="white"/>
</g>
<defs>
<linearGradient id="paint0_linear_0_164" x1="160" y1="9.3778e-06" x2="2.66668" y2="160" gradientUnits="userSpaceOnUse">
<stop stop-color="#F9B05B"/>
<stop offset="1" stop-color="#E94F1E"/>
</linearGradient>
<linearGradient id="paint1_linear_0_164" x1="76.7188" y1="79.5312" x2="150.625" y2="146.875" gradientUnits="userSpaceOnUse">
<stop stop-color="#081F3B"/>
<stop offset="1" stop-color="#081F3B" stop-opacity="0"/>
</linearGradient>
<clipPath id="clip0_0_164">
<rect width="160" height="160" fill="white"/>
</clipPath>
</defs>
</svg>
