<svg width="398" height="398" viewBox="0 0 398 398" fill="none" xmlns="http://www.w3.org/2000/svg">
<g clip-path="url(#clip0_0_2416)">
<path d="M199 337.062C296.284 337.062 375.148 333.226 375.148 328.493C375.148 323.76 296.284 319.923 199 319.923C101.716 319.923 22.8516 323.76 22.8516 328.493C22.8516 333.226 101.716 337.062 199 337.062Z" fill="#EBF5FF"/>
<path d="M45.518 197.436C-2.27706 264.653 75.1208 288.693 119.794 292.311H304.274C348.839 292.311 360.519 250.234 360.788 229.195C410.844 178.703 339.932 137.939 298.219 123.868C257.205 51.1845 159.485 63.7942 130.445 93.311C29.9927 109.021 46.3256 193.818 45.518 197.436Z" fill="#EBF5FF"/>
<path d="M239.957 84.8748C241.13 82.7284 242.298 81.1665 243.462 80.1893C244.626 79.212 246.001 78.5649 247.587 78.2477C249.173 77.9306 250.456 77.5481 251.436 77.1003C252.415 76.6524 253.154 75.9727 253.652 75.0612C254.865 72.8411 254.516 71.2089 252.605 70.1647C251.723 69.6827 250.833 69.6167 249.935 69.9662C249.038 70.3159 248.273 71.0341 247.642 72.1206L240.188 68.048C241.824 65.1236 244.001 63.3399 246.72 62.6968C249.438 62.0535 252.444 62.6316 255.738 64.431C259.016 66.2222 261.142 68.3671 262.116 70.8654C263.09 73.3637 262.813 76.0096 261.287 78.803C260.62 80.0233 259.771 81.0006 258.74 81.7354C257.708 82.4701 256.371 83.066 254.727 83.5236L250.902 84.4975C249.804 84.7949 248.916 85.2311 248.239 85.8062C247.563 86.3815 246.904 87.2197 246.264 88.3209L239.957 84.8748ZM235.39 91.0849C235.984 89.997 236.866 89.3187 238.034 89.0502C239.202 88.7816 240.374 88.9686 241.55 89.6112C242.726 90.2539 243.517 91.1392 243.922 92.2672C244.327 93.3954 244.232 94.5035 243.638 95.5913C243.043 96.6793 242.162 97.3575 240.994 97.6262C239.826 97.8948 238.654 97.7078 237.478 97.0651C236.301 96.4225 235.511 95.5372 235.106 94.409C234.701 93.2809 234.796 92.1729 235.39 91.0849ZM196.176 74.1755C196.176 71.7295 196.452 69.7987 197.005 68.383C197.558 66.9673 198.454 65.7401 199.694 64.7015C200.934 63.6627 201.876 62.712 202.521 61.8492C203.166 60.9864 203.489 60.0356 203.489 58.997C203.489 56.4671 202.4 55.2023 200.222 55.2023C199.216 55.2023 198.404 55.5708 197.784 56.3081C197.164 57.0452 196.838 58.042 196.804 59.2985H188.31C188.344 55.9479 189.399 53.3385 191.476 51.4705C193.554 49.6024 196.469 48.6685 200.222 48.6685C203.958 48.6685 206.852 49.5313 208.904 51.2569C210.956 52.9825 211.983 55.4368 211.983 58.6201C211.983 60.0105 211.706 61.2754 211.153 62.4146C210.6 63.5539 209.713 64.7182 208.49 65.9077L205.6 68.5966C204.779 69.3841 204.209 70.1924 203.891 71.0217C203.572 71.851 203.397 72.9023 203.363 74.1755H196.176ZM195.145 81.8151C195.145 80.5753 195.594 79.5575 196.49 78.7618C197.386 77.9659 198.504 77.568 199.845 77.568C201.185 77.568 202.303 77.9659 203.2 78.7618C204.096 79.5575 204.544 80.5753 204.544 81.8151C204.544 83.0549 204.096 84.0725 203.2 84.8684C202.303 85.6642 201.185 86.062 199.845 86.062C198.504 86.062 197.386 85.6642 196.49 84.8684C195.594 84.0725 195.145 83.0549 195.145 81.8151ZM151.143 87.1027C150.067 84.9065 149.465 83.0511 149.338 81.5366C149.211 80.0221 149.475 78.5258 150.131 77.0472C150.787 75.5688 151.214 74.3002 151.414 73.2416C151.613 72.183 151.484 71.1873 151.027 70.2547C149.913 67.9833 148.378 67.3271 146.423 68.286C145.52 68.7285 144.953 69.4171 144.721 70.352C144.489 71.2868 144.634 72.3256 145.157 73.4685L137.531 77.2082C136.086 74.185 135.885 71.3775 136.928 68.7856C137.97 66.1937 140.177 64.0717 143.546 62.4195C146.9 60.7746 149.879 60.2751 152.481 60.9209C155.084 61.5666 157.086 63.3184 158.487 66.1765C159.099 67.425 159.408 68.6824 159.413 69.9487C159.418 71.215 159.134 72.6514 158.559 74.2579L157.148 77.9445C156.758 79.0129 156.602 79.9895 156.682 80.8742C156.761 81.759 157.066 82.7802 157.597 83.9383L151.143 87.1027ZM153.582 94.4155C153.036 93.3024 152.99 92.1912 153.445 91.0821C153.899 89.973 154.728 89.1234 155.931 88.5333C157.135 87.9432 158.314 87.808 159.469 88.128C160.624 88.4479 161.475 89.1644 162.02 90.2775C162.566 91.3906 162.612 92.5018 162.158 93.6109C161.703 94.72 160.874 95.5696 159.671 96.1597C158.468 96.7498 157.288 96.885 156.133 96.565C154.978 96.2451 154.128 95.5286 153.582 94.4155Z" fill="#2B7ADC"/>
<path fill-rule="evenodd" clip-rule="evenodd" d="M88.4301 214.587C88.4301 214.587 81.4907 230.937 81.4907 249.065C81.4907 267.193 91.3297 282.068 91.3297 282.068C91.3297 282.068 102.594 272.101 102.594 253.973C102.594 235.846 88.4301 214.587 88.4301 214.587ZM309.57 214.587C309.57 214.587 316.509 230.937 316.509 249.065C316.509 267.193 306.67 282.068 306.67 282.068C306.67 282.068 295.406 272.101 295.406 253.973C295.406 235.846 309.57 214.587 309.57 214.587Z" fill="#111844"/>
<path fill-rule="evenodd" clip-rule="evenodd" d="M356.803 221.052C344.211 214.72 299.075 212.599 287.53 221.052C275.984 229.505 275.242 257.626 286.788 266.079C298.333 274.532 343.214 271.741 356.061 266.079C373.304 258.481 375.85 230.63 356.803 221.052Z" fill="#FFAA83"/>
<path fill-rule="evenodd" clip-rule="evenodd" d="M236.034 211.333C215.349 224.384 232.228 278.311 250.815 280.127C261.822 281.203 306.655 281.792 306.655 281.792C290.402 262.134 297.938 239.005 309.212 214.42C309.212 214.42 245.148 205.582 236.034 211.333Z" fill="#75B1FB"/>
<path fill-rule="evenodd" clip-rule="evenodd" d="M41.1968 221.052C53.7888 214.72 98.9243 212.599 110.47 221.052C122.015 229.505 122.758 257.626 111.212 266.079C99.6666 274.532 54.786 271.741 41.9391 266.079C24.696 258.481 22.1494 230.63 41.1968 221.052Z" fill="#FFAA83"/>
<path fill-rule="evenodd" clip-rule="evenodd" d="M177.318 212.11C209.207 225.416 172.857 278.472 147.184 280.127C136.148 280.839 91.3436 281.792 91.3436 281.792C107.597 262.134 100.061 239.005 88.7871 214.42C88.7871 214.42 167.5 208.013 177.318 212.11Z" fill="#75B1FB"/>
<path fill-rule="evenodd" clip-rule="evenodd" d="M297.943 212.995C283.968 236.089 282.753 258.939 292.932 281.568L306.656 281.792C290.403 262.134 297.939 239.004 309.213 214.42L297.943 212.995ZM100.058 212.995C114.032 236.089 115.248 258.939 105.068 281.568L91.3441 281.792C107.597 262.134 100.061 239.004 88.7876 214.42L100.058 212.995Z" fill="white"/>
<path fill-rule="evenodd" clip-rule="evenodd" d="M362.476 206.252C352.539 196.649 305.831 190.108 305.831 190.108C298.887 164.842 285.402 140.504 251.697 147.612C249.031 148.175 248.778 153.29 254.87 155.213C254.107 157.634 254.955 159.683 259.652 160.844C257.76 163.435 261.151 166.412 264.62 166.694C263.105 168.491 266.213 173.817 269.478 173.011C275.794 174.846 278.014 180.047 274.568 198.42C273.3 205.179 264.503 213.381 267.302 217.364C279.057 234.099 322.487 263.865 335.703 268.757C367.926 280.682 390.608 233.437 362.476 206.252Z" fill="#FFAA83"/>
<path fill-rule="evenodd" clip-rule="evenodd" d="M267.084 217.518C278.861 234.283 322.37 264.106 335.61 269.006C335.643 269.019 335.678 269.024 335.713 269.023C335.748 269.022 335.782 269.014 335.814 268.999C335.846 268.985 335.874 268.964 335.898 268.939C335.922 268.913 335.941 268.883 335.953 268.85C335.965 268.817 335.971 268.782 335.969 268.747C335.968 268.712 335.959 268.678 335.945 268.646C335.93 268.615 335.909 268.586 335.883 268.562C335.858 268.539 335.827 268.52 335.795 268.509C322.603 263.627 279.252 233.917 267.519 217.213C267.478 217.155 267.417 217.116 267.347 217.104C267.278 217.092 267.207 217.107 267.149 217.148C267.091 217.188 267.052 217.25 267.04 217.319C267.028 217.389 267.044 217.46 267.084 217.518Z" fill="black"/>
<path fill-rule="evenodd" clip-rule="evenodd" d="M35.5234 206.252C45.4604 196.649 92.1681 190.108 92.1681 190.108C99.1124 164.842 112.597 140.504 146.302 147.612C148.969 148.175 149.222 153.29 143.13 155.213C143.892 157.634 143.044 159.683 138.347 160.844C140.239 163.435 136.848 166.412 133.38 166.694C134.895 168.491 131.786 173.817 128.521 173.011C122.205 174.846 119.986 180.047 123.432 198.42C124.7 205.179 133.496 213.381 130.698 217.364C118.942 234.099 75.5122 263.865 62.2966 268.757C30.0737 280.682 7.39157 233.437 35.5234 206.252Z" fill="#FFAA83"/>
<path fill-rule="evenodd" clip-rule="evenodd" d="M130.48 217.212C118.747 233.917 75.3958 263.626 62.2046 268.508C62.1717 268.52 62.1415 268.539 62.1157 268.562C62.0899 268.586 62.0691 268.615 62.0544 268.646C62.0397 268.678 62.0314 268.712 62.03 268.747C62.0286 268.782 62.0341 268.817 62.0463 268.85C62.0584 268.883 62.077 268.913 62.1008 268.938C62.1246 268.964 62.1533 268.985 62.1851 268.999C62.217 269.014 62.2513 269.022 62.2863 269.023C62.3213 269.024 62.3561 269.018 62.3889 269.006C75.6287 264.106 119.138 234.283 130.915 217.517C130.935 217.489 130.949 217.457 130.957 217.423C130.964 217.389 130.965 217.354 130.959 217.319C130.953 217.285 130.94 217.252 130.922 217.223C130.903 217.193 130.879 217.168 130.85 217.148C130.822 217.128 130.789 217.114 130.755 217.106C130.721 217.098 130.686 217.098 130.652 217.104C130.618 217.11 130.585 217.122 130.555 217.141C130.526 217.16 130.5 217.184 130.48 217.212ZM255.073 155.384C255.073 155.384 261.095 148.255 277.035 150.469C277.105 150.479 277.175 150.46 277.231 150.418C277.287 150.375 277.324 150.312 277.334 150.243C277.344 150.173 277.325 150.102 277.283 150.046C277.241 149.99 277.178 149.953 277.108 149.943C260.808 147.68 254.666 155.043 254.666 155.043C254.644 155.07 254.627 155.101 254.616 155.134C254.606 155.167 254.602 155.202 254.605 155.237C254.608 155.272 254.618 155.305 254.634 155.336C254.65 155.367 254.672 155.395 254.699 155.417C254.726 155.44 254.756 155.456 254.79 155.467C254.823 155.477 254.858 155.481 254.893 155.478C254.927 155.475 254.961 155.465 254.992 155.449C255.023 155.433 255.05 155.411 255.073 155.384ZM143.333 155.042C143.333 155.042 137.191 147.679 120.891 149.942C120.821 149.952 120.759 149.989 120.716 150.045C120.674 150.101 120.656 150.172 120.665 150.242C120.675 150.311 120.712 150.374 120.768 150.417C120.824 150.459 120.894 150.478 120.964 150.468C136.904 148.254 142.926 155.383 142.926 155.383C142.949 155.41 142.976 155.432 143.007 155.448C143.038 155.464 143.072 155.474 143.107 155.477C143.141 155.48 143.176 155.476 143.21 155.466C143.243 155.455 143.274 155.438 143.3 155.416C143.327 155.394 143.349 155.366 143.365 155.335C143.381 155.304 143.391 155.271 143.394 155.236C143.397 155.201 143.393 155.166 143.383 155.133C143.372 155.1 143.355 155.069 143.333 155.042ZM259.798 161.094C259.798 161.094 267.317 158.804 273.386 157.615C275.959 157.111 278.268 156.802 279.616 156.962C280.947 157.12 282.339 158.308 283.544 159.654C285.404 161.731 286.804 164.217 286.804 164.217C286.839 164.278 286.896 164.324 286.964 164.343C286.997 164.352 287.032 164.355 287.067 164.35C287.102 164.346 287.135 164.335 287.165 164.318C287.196 164.301 287.222 164.278 287.244 164.251C287.265 164.223 287.281 164.192 287.291 164.158C287.3 164.125 287.303 164.09 287.299 164.055C287.294 164.021 287.284 163.987 287.266 163.957C287.266 163.957 285.837 161.419 283.939 159.3C282.64 157.848 281.114 156.606 279.678 156.435C278.295 156.271 275.924 156.577 273.284 157.094C267.191 158.288 259.644 160.587 259.644 160.587C259.61 160.597 259.579 160.614 259.552 160.636C259.525 160.658 259.503 160.685 259.487 160.716C259.47 160.747 259.46 160.78 259.457 160.815C259.454 160.85 259.457 160.885 259.467 160.918C259.477 160.951 259.494 160.982 259.516 161.009C259.538 161.036 259.565 161.058 259.596 161.075C259.627 161.091 259.661 161.101 259.695 161.105C259.73 161.108 259.765 161.105 259.798 161.094ZM138.357 160.586C138.357 160.586 130.809 158.287 124.716 157.094C122.076 156.577 119.705 156.27 118.322 156.435C116.886 156.605 115.361 157.848 114.061 159.299C112.163 161.419 110.734 163.956 110.734 163.956C110.717 163.987 110.706 164.02 110.702 164.055C110.697 164.089 110.7 164.124 110.709 164.158C110.719 164.191 110.735 164.223 110.756 164.25C110.778 164.278 110.804 164.301 110.835 164.318C110.865 164.335 110.899 164.346 110.933 164.35C110.968 164.354 111.003 164.351 111.036 164.342C111.07 164.333 111.101 164.317 111.129 164.295C111.156 164.274 111.179 164.247 111.196 164.217C111.196 164.217 112.596 161.73 114.456 159.653C115.662 158.307 117.053 157.12 118.385 156.962C119.733 156.801 122.041 157.111 124.614 157.615C130.683 158.804 138.202 161.094 138.202 161.094C138.269 161.113 138.341 161.106 138.402 161.073C138.464 161.039 138.51 160.983 138.53 160.917C138.55 160.85 138.544 160.778 138.511 160.716C138.479 160.654 138.423 160.607 138.357 160.586ZM265.158 167.367C265.158 167.367 269.551 166.275 273.085 165.964C274.558 165.834 275.878 165.833 276.641 166.126C277.633 166.506 278.445 167.705 279.082 168.989C280.075 170.986 280.62 173.217 280.62 173.217C280.628 173.252 280.643 173.284 280.663 173.313C280.684 173.341 280.71 173.366 280.74 173.384C280.77 173.403 280.803 173.415 280.838 173.421C280.873 173.426 280.908 173.425 280.942 173.416C280.976 173.408 281.009 173.393 281.037 173.372C281.065 173.351 281.089 173.325 281.107 173.294C281.125 173.264 281.137 173.231 281.142 173.196C281.147 173.161 281.145 173.125 281.136 173.091C281.136 173.091 280.371 169.971 279.006 167.751C278.396 166.758 277.659 165.948 276.831 165.63C276.016 165.318 274.609 165.297 273.038 165.435C269.468 165.75 265.03 166.852 265.03 166.852C264.962 166.869 264.903 166.912 264.867 166.973C264.831 167.033 264.82 167.105 264.837 167.174C264.845 167.207 264.86 167.239 264.881 167.267C264.901 167.295 264.927 167.319 264.957 167.337C264.987 167.355 265.02 167.367 265.055 167.372C265.089 167.377 265.124 167.375 265.158 167.367ZM132.969 166.852C132.969 166.852 128.531 165.75 124.961 165.436C123.39 165.297 121.983 165.319 121.168 165.631C120.34 165.948 119.604 166.758 118.993 167.751C117.628 169.971 116.863 173.092 116.863 173.092C116.848 173.16 116.86 173.231 116.896 173.29C116.933 173.349 116.991 173.392 117.059 173.408C117.127 173.425 117.198 173.414 117.258 173.378C117.318 173.343 117.361 173.285 117.379 173.218C117.379 173.218 117.924 170.987 118.917 168.989C119.554 167.705 120.366 166.506 121.358 166.126C122.122 165.834 123.442 165.835 124.915 165.964C128.448 166.275 132.841 167.367 132.841 167.367C132.875 167.376 132.91 167.377 132.945 167.372C132.979 167.367 133.012 167.355 133.042 167.337C133.072 167.319 133.098 167.295 133.118 167.267C133.139 167.239 133.154 167.208 133.163 167.174C133.18 167.105 133.169 167.033 133.132 166.973C133.096 166.913 133.037 166.869 132.969 166.852Z" fill="black"/>
<path fill-rule="evenodd" clip-rule="evenodd" d="M240.479 214.728C224.524 196.829 189.135 197.528 172.784 215.078C154.39 234.821 131.371 328.381 131.371 328.381H271.165C271.165 328.381 257.461 233.779 240.479 214.728H240.479Z" fill="#75B1FB"/>
<path fill-rule="evenodd" clip-rule="evenodd" d="M152.28 256.864C140.611 289.717 131.113 328.318 131.113 328.318C131.104 328.352 131.103 328.387 131.108 328.422C131.113 328.456 131.125 328.49 131.143 328.52C131.161 328.55 131.185 328.576 131.213 328.596C131.241 328.617 131.273 328.632 131.307 328.641C131.341 328.649 131.376 328.651 131.411 328.645C131.445 328.64 131.478 328.628 131.508 328.61C131.538 328.591 131.564 328.567 131.585 328.539C131.605 328.511 131.62 328.479 131.628 328.445C131.628 328.445 141.119 289.872 152.78 257.042C152.804 256.975 152.8 256.902 152.77 256.839C152.74 256.775 152.686 256.726 152.619 256.703C152.553 256.679 152.48 256.683 152.416 256.713C152.353 256.743 152.304 256.798 152.28 256.864ZM271.428 328.343C271.428 328.343 265.672 288.607 256.997 255.445C256.988 255.411 256.973 255.379 256.952 255.351C256.931 255.324 256.904 255.3 256.874 255.283C256.844 255.265 256.811 255.254 256.776 255.249C256.742 255.244 256.707 255.246 256.673 255.255C256.639 255.264 256.608 255.279 256.58 255.3C256.552 255.321 256.529 255.348 256.511 255.378C256.494 255.408 256.482 255.441 256.477 255.475C256.473 255.51 256.475 255.545 256.483 255.579C265.152 288.714 270.903 328.42 270.903 328.42C270.908 328.454 270.92 328.487 270.938 328.517C270.955 328.547 270.979 328.573 271.007 328.594C271.035 328.615 271.067 328.63 271.1 328.639C271.134 328.647 271.169 328.649 271.204 328.644C271.238 328.639 271.271 328.627 271.301 328.61C271.331 328.592 271.357 328.568 271.378 328.54C271.399 328.512 271.414 328.481 271.423 328.447C271.431 328.413 271.433 328.378 271.428 328.343Z" fill="black"/>
<path fill-rule="evenodd" clip-rule="evenodd" d="M202.436 144.406C221.422 144.406 236.125 175.427 236.125 198.918C236.125 222.408 208.542 241.498 198.349 241.257C188.148 241.016 165.194 220.853 165.194 197.363C165.194 173.872 183.451 144.406 202.436 144.406Z" fill="#F5B683"/>
<path fill-rule="evenodd" clip-rule="evenodd" d="M195.898 133.985C202.617 130.825 209.14 129.031 209.14 129.031C209.14 129.031 209.127 130.194 209.587 132.664C219.506 132.113 228.43 134.281 236.759 138.076C234.291 139.532 232.654 141.404 231.882 143.708C252.688 161.733 233.21 165.457 233.351 178.654C227.927 165.016 231.694 175.747 225.629 161.356L211.578 178.51C211.909 162.836 207.264 164.284 203.852 155.671C194.812 169.903 182.983 179.385 163.337 175.547C167.793 170.904 166.191 171.823 166.873 162.72C160.658 163.277 160.741 159.001 156.882 163.092C159.377 154.569 165.023 147.373 174.977 141.99C172.299 139.437 170.059 136.15 170.059 136.15C170.059 136.15 182.792 133.326 195.898 133.985Z" fill="#111844"/>
<path fill-rule="evenodd" clip-rule="evenodd" d="M199.934 218.855C202.966 217.847 205.961 218.635 206.619 220.614C207.277 222.593 205.35 225.018 202.318 226.026C199.287 227.034 196.291 226.246 195.633 224.267C194.975 222.288 196.902 219.863 199.934 218.855Z" fill="white"/>
<path fill-rule="evenodd" clip-rule="evenodd" d="M187.32 182.565H214.817V191.837H187.32V182.565ZM187.32 196.794H214.817V206.066H187.32V196.794Z" fill="url(#paint0_linear_0_2416)"/>
<path d="M157.082 227.016C178.331 227.016 195.556 210.059 195.556 189.141C195.556 168.224 178.331 151.267 157.082 151.267C135.834 151.267 118.608 168.224 118.608 189.141C118.608 210.059 135.834 227.016 157.082 227.016Z" fill="url(#paint1_linear_0_2416)"/>
<path d="M245.787 227.016C267.036 227.016 284.261 210.059 284.261 189.141C284.261 168.224 267.036 151.267 245.787 151.267C224.539 151.267 207.313 168.224 207.313 189.141C207.313 210.059 224.539 227.016 245.787 227.016Z" fill="url(#paint2_linear_0_2416)"/>
<path d="M157.082 214.124C171.098 214.124 182.46 202.939 182.46 189.142C182.46 175.344 171.098 164.16 157.082 164.16C143.067 164.16 131.705 175.344 131.705 189.142C131.705 202.939 143.067 214.124 157.082 214.124Z" fill="#D6EAFF"/>
<path d="M245.788 214.124C259.803 214.124 271.165 202.939 271.165 189.142C271.165 175.344 259.803 164.16 245.788 164.16C231.772 164.16 220.41 175.344 220.41 189.142C220.41 202.939 231.772 214.124 245.788 214.124Z" fill="#D6EAFF"/>
<path fill-rule="evenodd" clip-rule="evenodd" d="M170.497 168.008C174.03 170.374 175.63 174.19 174.067 176.524C172.504 178.858 168.366 178.831 164.833 176.465C161.3 174.099 159.7 170.283 161.263 167.949C162.826 165.615 166.963 165.642 170.497 168.008ZM259.202 168.008C262.735 170.374 264.334 174.19 262.771 176.524C261.209 178.858 257.071 178.831 253.538 176.465C250.004 174.099 248.405 170.283 249.968 167.949C251.531 165.615 255.668 165.642 259.202 168.008Z" fill="#AED8FF"/>
</g>
<defs>
<linearGradient id="paint0_linear_0_2416" x1="214.817" y1="182.565" x2="192.05" y2="209.656" gradientUnits="userSpaceOnUse">
<stop stop-color="#F9B05B"/>
<stop offset="1" stop-color="#E94F1E"/>
</linearGradient>
<linearGradient id="paint1_linear_0_2416" x1="195.556" y1="151.267" x2="121.098" y2="228.185" gradientUnits="userSpaceOnUse">
<stop stop-color="#F9B05B"/>
<stop offset="1" stop-color="#E94F1E"/>
</linearGradient>
<linearGradient id="paint2_linear_0_2416" x1="284.261" y1="151.267" x2="209.804" y2="228.185" gradientUnits="userSpaceOnUse">
<stop stop-color="#F9B05B"/>
<stop offset="1" stop-color="#E94F1E"/>
</linearGradient>
<clipPath id="clip0_0_2416">
<rect width="398" height="398" fill="white"/>
</clipPath>
</defs>
</svg>
